<svg width="28" height="28" viewBox="0 0 28 28" fill="none" xmlns="http://www.w3.org/2000/svg">
<path d="M2.33334 24.5C2.33318 22.9906 2.69911 21.5036 3.39977 20.1666C4.10042 18.8296 5.1149 17.6826 6.35619 16.8237C7.59748 15.9649 9.02856 15.4199 10.5267 15.2355C12.0248 15.0512 13.5454 15.2329 14.9578 15.7652" stroke="white" stroke-width="2"/>
<path d="M24.941 19.397C25.4058 18.9323 25.6669 18.3019 25.6669 17.6447C25.6669 16.9874 25.4058 16.3571 24.941 15.8923C24.4763 15.4276 23.8459 15.1665 23.1887 15.1665C22.5314 15.1665 21.9011 15.4276 21.4363 15.8923L16.758 20.573C16.4806 20.8502 16.2776 21.1929 16.1677 21.5693L15.1912 24.9177C15.1619 25.0181 15.1601 25.1245 15.1861 25.2258C15.2121 25.3271 15.2648 25.4195 15.3387 25.4935C15.4126 25.5674 15.5051 25.6201 15.6064 25.6461C15.7077 25.672 15.8141 25.6703 15.9145 25.641L19.2628 24.6645C19.6393 24.5546 19.982 24.3516 20.2592 24.0742L24.941 19.397Z" stroke="white" stroke-width="1.16667"/>
<path d="M11.6667 15.1667C14.8883 15.1667 17.5 12.555 17.5 9.33333C17.5 6.11167 14.8883 3.5 11.6667 3.5C8.44502 3.5 5.83334 6.11167 5.83334 9.33333C5.83334 12.555 8.44502 15.1667 11.6667 15.1667Z" stroke="white" stroke-width="1.16667"/>
</svg>
